<?xml version="1.0" standalone="no"?>
<!DOCTYPE svg PUBLIC "-//W3C//DTD SVG 1.1//EN" "http://www.w3.org/Graphics/SVG/1.1/DTD/svg11.dtd" >
<svg xmlns="http://www.w3.org/2000/svg">
<metadata>Generated by IcoMoon</metadata>
<defs>
<font id="canbotre" horiz-adv-x="1024">
<font-face units-per-em="1024" ascent="960" descent="-64" />
<missing-glyph horiz-adv-x="1024" />
<glyph unicode="&#x20;" horiz-adv-x="512" d="" />
<glyph unicode="&#xe900;" glyph-name="arrow-link-up" d="M896-64c35.334 0 65.5 12.5 90.5 37.5s37.5 55.166 37.5 90.5v768c0 35.334-12.5 65.5-37.5 90.5s-55.166 37.5-90.5 37.5h-768c-35.334 0-65.5-12.5-90.5-37.5s-37.5-55.166-37.5-90.5v-768c0-35.334 12.5-65.5 37.5-90.5s55.166-37.5 90.5-37.5h768zM512 583.222c4.667 1.333 209-189 209-189 6.667-6-424.667-6-418 0 0 0 204.334 190.333 209 189z" />
<glyph unicode="&#xe901;" glyph-name="arrow-link-down" d="M128 960c-35.334 0-65.5-12.5-90.5-37.5s-37.5-55.166-37.5-90.5v-768c0-35.334 12.5-65.5 37.5-90.5s55.166-37.5 90.5-37.5h768c35.334 0 65.5 12.5 90.5 37.5s37.5 55.166 37.5 90.5v768c0 35.334-12.5 65.5-37.5 90.5s-55.166 37.5-90.5 37.5h-768zM512 312.778c-4.667-1.333-209 189-209 189-6.667 6 424.667 6 418 0 0 0-204.334-190.333-209-189z" />
<glyph unicode="&#xe902;" glyph-name="arrow-menu" horiz-adv-x="1536" d="M1295.724 877.425l-564.414-558.345-564.414 558.345c-44.506 48.552-89.011 49.564-133.517 3.035s-44.506-92.046 0-136.552l631.172-631.172c16.184-20.23 38.437-30.345 66.759-30.345s50.575 10.115 66.758 30.345l631.172 631.172c44.506 44.506 44.506 90.023 0 136.552s-89.011 45.517-133.517-3.035v0z" />
<glyph unicode="&#xe903;" glyph-name="arrow-mesage" d="M742.4 823.467h-460.8c-21.2 0-39.3-7.5-54.3-22.5s-22.5-33.1-22.5-54.3v-460.8c0-21.2 7.5-39.3 22.5-54.3s33.1-22.5 54.3-22.5h460.8c21.2 0 39.3 7.5 54.3 22.5s22.5 33.1 22.5 54.3v460.8c0 21.2-7.5 39.3-22.5 54.3s-33.1 22.5-54.3 22.5v0zM656.6 499.467l-108.6-108.6c-3.6-4-8.1-6-13.5-6s-9.9 2-13.5 6c-4 3.6-6 8.1-6 13.5s2 9.9 6 13.5l79.2 79.2h-203.4c-5.2 0-9.7 1.9-13.5 5.7s-5.7 8.3-5.7 13.5c0 5.2 1.9 9.7 5.7 13.5s8.3 5.7 13.5 5.7h203.4l-79.2 79.2c-4 3.6-6 8.1-6 13.5s2 9.9 6 13.5c3.6 4 8.1 6 13.5 6s9.9-2 13.5-6l108.6-108.6c2.4-2.4 4-5.1 4.8-8.1s0.8-5.9 0-8.7c0.8-2.8 0.8-5.7 0-8.7s-2.4-5.7-4.8-8.1v0z" />
<glyph unicode="&#xe904;" glyph-name="arrow" horiz-adv-x="1088" d="M526 832l334-334-334-334-58.596 58.596 232.433 234.386h-507.836v82.035h507.836l-232.433 234.386z" />
<glyph unicode="&#xe905;" glyph-name="email" horiz-adv-x="1536" d="M70.154 876c-24.616 13.334-40.615 28-48 44-4.923 16-4.308 26.667 1.846 32s20.308 8 42.462 8h1410.462c22.154 0 36.308-2.667 42.462-8s6.769-16 1.846-32c-7.385-16-23.385-30.666-48-44-406.156-240.001-614.154-362.667-624-368-19.692-10.667-45.538-16-77.538-16s-57.846 5.333-77.538 16c-9.846 5.333-217.844 127.999-624 368v0zM1506.462 860c17.231 2.667 26.461 3.333 27.692 2s1.846-8.667 1.846-22v-820c0-18.667-9.231-37.333-27.692-56s-36.307-28-53.538-28h-1366.154c-19.692 0-39.385 9.333-59.077 28s-29.538 37.333-29.538 56v820c0 24 11.077 30.667 33.231 20 7.385-5.333 38.154-27.333 92.308-66s121.23-87.333 201.231-146c80.001-58.667 144.615-105.333 193.846-140l-306.462-372c-7.385-8-8.615-14.667-3.692-20 2.462-2.667 6.154-3.333 11.077-2s8.615 3.333 11.077 6l361.846 332c51.693-37.334 84.923-60 99.692-68 19.692-10.667 45.538-16 77.538-16s57.846 5.333 77.538 16c14.769 8 48 30.666 99.692 68l361.846-332c2.462-2.667 6.154-4.667 11.077-6s8.615-0.667 11.077 2c2.462 2.667 0 9.333-7.385 20l-302.769 372c49.231 34.667 113.23 81.333 192 140s145.23 107.333 199.385 146c54.154 38.667 84.923 60.667 92.308 66v0z" />
<glyph unicode="&#xe906;" glyph-name="facebook" d="M544.041 243.359h-80.478v171.85h-40.216v66.219h40.216v39.731c0 53.999 22.712 86.13 87.204 86.13h53.712v-66.219h-33.559c-25.113 0-26.788-9.262-26.788-26.51l-0.091-33.132h60.823l-7.11-66.219h-53.712v-171.85z" />
<glyph unicode="&#xe907;" glyph-name="google-plus" horiz-adv-x="1058" d="M735.342 435.917v-55.455h-40.013v55.455h-55.003v40.323h55.003v55.433h40.013v-55.433h55.026v-40.323h-55.026zM450.249 288.734c-87.294 0-158.058 71.293-158.058 159.266s70.764 159.289 158.058 159.289c41.1 0 78.531-15.838 106.632-41.756l-46.579-45.966c-16.213 13.835-37.159 22.187-60.053 22.187-51.38 0-93.023-41.984-93.023-93.753s41.643-93.753 93.023-93.753c39.764 0 73.662 25.145 87 60.484h-88.992v66.537h156.586c2.264-10.741 3.465-21.845 3.465-33.269 0-87.973-70.764-159.266-158.058-159.266v0z" />
<glyph unicode="&#xe908;" glyph-name="media-1" horiz-adv-x="922" d="M732.8 857.6c9.6 0 17.867-3.2 24.8-9.6s10.4-14.4 10.4-24v-484.8c0-41.6-6.4-70.933-19.2-88-13.867-22.4-36.8-33.6-68.8-33.6h-59.2c-22.4 0-41.867 7.2-58.4 21.6s-24.8 32.8-24.8 55.2c0 22.4 8.267 40.8 24.8 55.2s36 21.6 58.4 21.6h96v307.2l-332.8-60.8v-371.2c0-24.533-6.933-46.4-20.8-65.6-1.067-1.067-2.133-2.4-3.2-4s-1.6-2.933-1.6-4l-3.2-3.2c-16-19.2-36.266-28.8-60.8-28.8h-59.2c-22.4 0-41.6 7.2-57.6 21.6s-24 32.8-24 55.2c0 22.4 8 40.8 24 55.2s35.2 21.6 57.6 21.6h97.6v457.6c1.067 10.667 5.6 21.067 13.6 31.2s17.867 16.8 29.6 20l348.8 52.8c3.2 1.067 5.867 1.6 8 1.6v0z" />
<glyph unicode="&#xe909;" glyph-name="media-2" horiz-adv-x="1178" d="M1021.827 222.093c-1.72 2.866-5.445 4.729-11.177 5.588s-13.469 0.716-23.213-0.43c-17.195-2.293-32.241-0.573-45.138 5.159s-23.357 15.476-31.381 29.232c-5.732 10.317-9.314 20.777-10.747 31.381s-0.717 21.064 2.149 31.381c2.866 10.89 8.598 23.787 17.195 38.689s20.061 32.098 34.39 51.586l17.195 24.933c26.939 36.683 43.131 70.93 48.576 102.741s0.143 61.186-15.906 88.125c-15.476 27.513-42.701 41.698-81.677 42.558s-75.086-5.875-108.33-20.204c-13.183 27.512-29.948 52.732-50.296 75.659s-43.274 42.558-68.781 58.894c-25.506 16.336-53.305 29.088-83.397 38.259s-61.473 13.756-94.144 13.756c-45.854 0-88.698-8.597-128.534-25.793s-74.799-40.838-104.891-70.93c-30.092-30.092-53.735-65.055-70.93-104.891s-25.793-82.68-25.793-128.534c0-45.854 8.598-88.698 25.793-128.534s40.838-74.799 70.93-104.891c30.092-30.092 65.055-53.735 104.891-70.93s82.68-25.793 128.534-25.793c45.854 0 88.698 8.598 128.534 25.793s74.799 40.838 104.891 70.93c30.092 30.092 53.735 65.055 70.93 104.891s25.793 82.68 25.793 128.534c0 20.061-1.863 39.692-5.588 58.894s-8.741 37.686-15.046 55.455c10.89 4.012 22.784 7.451 35.68 10.317s25.649 4.585 38.259 5.159c16.622 0.573 31.811-1.146 45.567-5.159s23.5-11.177 29.232-21.494c13.183-22.927 16.622-48.003 10.317-75.229s-22.64-56.314-49.006-87.266l-10.317-12.896c-30.378-36.683-49.293-71.073-56.744-103.171s-3.153-61.903 12.896-89.415c6.305-10.89 14.616-20.204 24.933-27.942s22.354-14.186 36.11-19.345c14.329-4.585 27.369-6.735 39.119-6.448s22.497 3.296 32.241 9.027c4.585 2.866 7.451 6.162 8.597 9.887s0.573 7.881-1.719 12.467v0zM365.83 438.753c-18.915 0-35.107 6.735-48.576 20.204s-20.204 29.662-20.204 48.576c0 18.915 6.735 35.107 20.204 48.576s29.662 20.204 48.576 20.204c18.915 0 35.107-6.735 48.576-20.204s20.204-29.662 20.204-48.576c0-18.915-6.735-35.107-20.204-48.576s-29.662-20.204-48.576-20.204v0zM517.148 287.435c-18.915 0-35.107 6.735-48.576 20.204s-20.204 29.662-20.204 48.576c0 18.915 6.735 35.107 20.204 48.576s29.662 20.204 48.576 20.204c18.915 0 35.107-6.735 48.576-20.204s20.204-29.662 20.204-48.576c0-18.915-6.735-35.107-20.204-48.576s-29.662-20.204-48.576-20.204v0zM490.495 507.534c0 7.451 2.579 13.899 7.738 19.345s11.75 8.168 19.774 8.168c7.451 0 13.899-2.723 19.345-8.168s8.168-11.893 8.168-19.345c0-7.451-2.723-13.899-8.168-19.345s-11.893-8.168-19.345-8.168c-8.024 0-14.616 2.723-19.774 8.168s-7.738 11.893-7.738 19.345v0zM517.148 590.071c-18.915 0-35.107 6.735-48.576 20.204s-20.204 29.662-20.204 48.576c0 18.915 6.735 35.107 20.204 48.576s29.662 20.204 48.576 20.204c18.915 0 35.107-6.735 48.576-20.204s20.204-29.662 20.204-48.576c0-18.915-6.735-35.107-20.204-48.576s-29.662-20.204-48.576-20.204v0zM668.466 438.753c-18.915 0-35.107 6.735-48.576 20.204s-20.204 29.662-20.204 48.576c0 18.915 6.735 35.107 20.204 48.576s29.662 20.204 48.576 20.204c18.915 0 35.107-6.735 48.576-20.204s20.204-29.662 20.204-48.576c0-18.915-6.735-35.107-20.204-48.576s-29.662-20.204-48.576-20.204v0z" />
<glyph unicode="&#xe90a;" glyph-name="media-3" d="M512 960c141.129 0 261.743-50.051 361.846-150.154s150.154-220.717 150.154-361.846c0-141.129-50.051-261.743-150.154-361.846s-220.717-150.154-361.846-150.154c-141.129 0-261.743 50.051-361.846 150.154s-150.154 220.717-150.154 361.846c0 141.129 50.051 261.743 150.154 361.846s220.717 150.154 361.846 150.154v0zM512 39.384c113.231 0 209.641 39.795 289.231 119.385s119.385 176 119.385 289.231c0 113.231-39.795 209.641-119.385 289.231s-176 119.385-289.231 119.385c-113.231 0-209.641-39.795-289.231-119.385s-119.385-176-119.385-289.231c0-113.231 39.795-209.641 119.385-289.231s176-119.385 289.231-119.385v0zM691.692 499.692c-21.333 0-39.384 6.974-54.154 20.923s-22.154 32.41-22.154 55.385c0 22.974 7.385 41.436 22.154 55.385s32.821 20.923 54.154 20.923c21.333 0 39.384-6.974 54.154-20.923s22.154-32.41 22.154-55.385c0-22.974-7.384-41.436-22.154-55.385s-32.821-20.923-54.154-20.923v0zM332.308 499.692c-21.333 0-39.384 6.974-54.154 20.923s-22.154 32.41-22.154 55.385c0 22.974 7.384 41.436 22.154 55.385s32.821 20.923 54.154 20.923c21.333 0 39.384-6.974 54.154-20.923s22.154-32.41 22.154-55.385c0-22.974-7.385-41.436-22.154-55.385s-32.821-20.923-54.154-20.923v0zM512 167.384c-59.077 0-112 16-158.769 48s-80.82 75.076-102.154 129.231h521.847c-21.334-54.155-55.385-97.231-102.154-129.231s-99.692-48-158.769-48v0z" />
<glyph unicode="&#xe90b;" glyph-name="phone" horiz-adv-x="1303" d="M1060.965 327.796c-3.211 20.873-12.042 38.735-26.492 53.587s-32.112 24.686-52.985 29.503c-79.478 18.464-132.662 48.77-159.556 90.917s-41.946 88.508-45.157 139.085c-14.45 3.211-34.721 5.82-60.812 7.827s-60.41 3.011-102.959 3.011c-42.549 0-76.868-1.004-102.959-3.011s-46.362-4.616-60.812-7.827c-3.211-50.577-18.264-96.938-45.157-139.085s-80.079-72.452-159.556-90.917c-20.873-4.817-38.534-14.651-52.985-29.503s-23.281-32.714-26.492-53.587l-30.105-211.939c-5.62-36.929 3.612-69.843 27.697-98.744s54.992-43.351 92.723-43.351h715.294c37.732 0 68.639 14.45 92.723 43.351s33.316 61.815 27.697 98.744l-30.105 211.939zM613.004 129.103c-43.351 0-80.079 15.052-110.184 45.157s-45.157 66.431-45.157 108.98c0 42.549 15.052 78.875 45.157 108.98s66.833 45.157 110.184 45.157c43.351 0 80.079-15.052 110.184-45.157s45.157-66.431 45.157-108.98c0-42.549-15.052-78.875-45.157-108.98s-66.833-45.157-110.184-45.157v0zM1225.94 714.344c0 22.478-14.25 48.168-42.749 77.069s-69.442 55.794-122.828 80.681c-53.386 24.887-117.81 45.759-193.274 62.618s-160.158 25.288-254.086 25.288c-93.928 0-178.622-8.429-254.086-25.288s-139.887-37.731-193.274-62.618c-53.386-24.887-94.329-51.78-122.828-80.681s-42.749-54.59-42.749-77.069c-0.803-46.563 5.62-92.924 19.267-139.085s59.005-64.425 136.074-54.791c90.717 12.042 141.895 33.316 153.535 63.823s17.461 68.639 17.461 114.399c0 31.309 30.305 52.182 90.917 62.618s125.838 15.655 195.682 15.655c69.844 0 135.071-5.218 195.682-15.655s90.917-31.309 90.917-62.618c0-45.76 5.82-83.892 17.461-114.399s62.819-51.781 153.535-63.823c77.069-9.634 122.427 8.63 136.074 54.791s20.070 92.522 19.267 139.085v0z" />
<glyph unicode="&#xe90c;" glyph-name="search" d="M746.667 336l-10.667-18.667 288-290.667-90.667-90.667-288 290.667-18.667-13.333c-71.111-44.445-144.889-66.667-221.334-66.667-112 0-207.555 40-286.666 120s-118.667 175.999-118.667 288c0 112.001 39.556 207.555 118.667 286.667s174.666 118.667 286.666 118.667c112 0 207.555-39.555 286.667-118.667s118.667-174.666 118.667-286.667c0-78.223-21.333-151.111-64-218.667v0zM632 781.333c-62.223 62.223-137.778 93.333-226.667 93.333s-164.444-31.111-226.666-93.333c-62.223-62.223-93.334-137.777-93.334-226.667s31.111-164.444 93.334-226.667c62.222-62.223 137.778-93.333 226.666-93.333s164.444 31.111 226.667 93.333c64 64 96 139.555 96 226.667s-32 162.666-96 226.667v0z" />
<glyph unicode="&#xe90d;" glyph-name="time" d="M529.628 677.158v-179.48l153.84-91.343-25.64-43.268-179.48 108.97v205.121h51.28zM512 231.662c74.784 0 139.15 26.975 193.102 80.926s80.926 118.318 80.926 193.102c0 74.784-26.975 139.15-80.926 193.102s-118.318 80.926-193.102 80.926c-74.784 0-139.15-26.975-193.102-80.926s-80.926-118.318-80.926-193.102c0-74.784 26.975-139.151 80.926-193.102s118.318-80.926 193.102-80.926v0zM512 847.024c94.014 0 174.406-33.385 241.177-100.156s100.156-147.163 100.156-241.177c0-94.014-33.385-174.406-100.156-241.177s-147.163-100.156-241.177-100.156c-94.014 0-174.406 33.385-241.177 100.156s-100.156 147.163-100.156 241.177c0 94.014 33.385 174.406 100.156 241.177s147.163 100.156 241.177 100.156v0z" />
<glyph unicode="&#xe90e;" glyph-name="twitter" d="M713.465 552.198c-13.338-5.484-27.671-9.193-42.685-10.854 15.33 8.533 27.128 22.027 32.653 38.116-14.357-7.896-30.253-13.631-47.191-16.725-13.541 13.403-32.857 21.777-54.256 21.777-41.054 0-74.319-30.857-74.319-68.927 0-5.416 0.657-10.672 1.925-15.701-61.751 2.844-116.528 30.31-153.167 71.999-6.408-10.172-10.054-22.005-10.054-34.634 0-23.916 13.111-45.033 33.061-57.367-12.205 0.341-23.663 3.459-33.672 8.602v-0.865c0-33.405 25.611-61.235 59.623-67.584-6.25-1.57-12.794-2.435-19.587-2.435-4.778 0-9.443 0.455-13.972 1.252 9.443-27.375 36.91-47.309 69.428-47.855-25.452-18.5-57.494-29.514-92.321-29.514-5.978 0-11.911 0.319-17.731 0.956 32.88-19.547 71.941-30.97 113.924-30.97 136.704 0 211.453 105.040 211.453 196.13 0 2.981-0.068 5.939-0.204 8.897 14.515 9.717 27.128 21.868 37.091 35.681v0.023z" />
<glyph unicode="&#xe90f;" glyph-name="user" horiz-adv-x="887" d="M403.398 960c68.558 0 127.15-24.314 175.778-72.942s72.942-107.221 72.942-175.779c0-68.558-24.314-127.15-72.942-175.779s-107.22-72.942-175.778-72.942c-68.558 0-127.15 24.314-175.778 72.942s-72.942 107.221-72.942 175.779c0 68.558 24.314 127.15 72.942 175.779s107.22 72.942 175.778 72.942v0zM0 111.257c0 74.193 38.782 139.672 116.347 196.441s179.298 85.152 305.2 85.152c122.53 0 223.419-28.384 302.671-85.152s118.876-122.248 118.876-196.441c0-37.096-40.187-69.696-120.562-97.799s-180.703-42.155-300.984-42.155c-125.902 0-227.635 14.051-305.2 42.155s-116.347 60.703-116.347 97.799v0z" />
<glyph unicode="&#xe910;" glyph-name="arrow-right" horiz-adv-x="1536" d="M338.575 975.724l558.345-564.414-558.345-564.414c-48.552-44.506-49.564-89.011-3.035-133.517s92.046-44.506 136.552 0l631.172 631.172c20.23 16.184 30.345 38.437 30.345 66.759s-10.115 50.575-30.345 66.758l-631.172 631.172c-44.506 44.506-90.023 44.506-136.552 0s-45.517-89.011 3.035-133.517v0z" />
<glyph unicode="&#xe911;" glyph-name="arrow-left" horiz-adv-x="1536" d="M1197.425-79.724l-558.345 564.414 558.345 564.414c48.552 44.506 49.564 89.011 3.035 133.517s-92.046 44.506-136.552 0l-631.172-631.172c-20.23-16.184-30.345-38.437-30.345-66.759s10.115-50.575 30.345-66.758l631.172-631.172c44.506-44.506 90.023-44.506 136.552 0s45.517 89.011-3.035 133.517v0z" />
<glyph unicode="&#xe912;" glyph-name="print" d="M783.739 761.098c0 31.895-12.655 62.536-35.242 85.124l-78.537 78.536c-22.587 22.588-53.228 35.242-85.123 35.242h-281.934c-34.614 0-62.745-28.131-62.745-62.745v-201.516h543.686v65.359h-0.105zM65.204 100.287h107.712v217.935h678.169v-217.934h107.712c34.615 0 62.745 28.131 62.745 62.745v396.862c0 34.614-28.13 62.745-62.745 62.745h-893.594c-34.614 0-62.745-28.131-62.745-62.745v-396.862c0-34.719 28.026-62.746 62.745-62.746zM164.445 536.888c36.392 0 65.882-29.489 65.882-65.882s-29.49-65.882-65.882-65.882-65.882 29.49-65.882 65.882c0 36.393 29.49 65.882 65.882 65.882zM788.34-32.731v288.209h-552.784v-288.104c0-17.255 14.118-31.373 31.373-31.373h490.039c17.255-0.105 31.373 14.013 31.373 31.268zM376.001 127.060h271.895c15.791 0 28.863-11.609 31.059-26.772 0.209-1.463 0.314-3.032 0.314-4.6 0-17.361-14.013-31.373-31.373-31.373h-271.895c-17.359 0-31.373 14.012-31.373 31.373 0 1.569 0.105 3.032 0.314 4.6 2.196 15.163 15.268 26.772 31.059 26.772z" />
<glyph unicode="&#xe913;" glyph-name="arrow-back" horiz-adv-x="1088" d="M562 64l-334 334 334 334 58.596-58.596-232.433-234.386h507.836v-82.035h-507.836l232.433-234.386z" />
<glyph unicode="&#xe914;" glyph-name="arrow-menu-up" horiz-adv-x="1536" d="M240.276 18.575l564.414 558.345 564.414-558.345c44.506-48.552 89.011-49.564 133.517-3.035s44.506 92.046 0 136.552l-631.172 631.172c-16.184 20.23-38.437 30.345-66.759 30.345s-50.575-10.115-66.758-30.345l-631.172-631.172c-44.506-44.506-44.506-90.023 0-136.552s89.011-45.517 133.517 3.035v0z" />
</font>
</defs>
</svg>
